<svg width="64" height="76" fill="none" xmlns="http://www.w3.org/2000/svg"><g clip-path="url(#a)"><path d="M61.1 22.5H36.3c13.8-6.9 14.9-11.3 14.4-13.70003-1.2-4-5.7-7-10-5.4C35.1 5.49997 33.6 13.8 32.1 19.8c-2-6.1-3.8-13.80003-8.2-17.70003-1.3-1.1-3.1-2.3-5.8-2-4 .4-9.8 5.4-7.5 11.00003 2.3 5.4 9.7 8.8 14.6 11.5H2.9c-1.6 0-2.9 1.3-2.9 2.9v11.3c0 1.6 1.3 2.9 2.9 2.9h.3V76H61V39.6h.1c1.6 0 2.9-1.3 2.9-2.9V25.4c0-1.6-1.3-2.9-2.9-2.9ZM42.4 5.89997c2.1-.3 5 1.3 5.3 3.2C48.1 11.9 44.3 14.4 42.6 15.5c-2.5 1.7-4.9 2.6-7.3 4.1.9-3.7 2.5-13.00003 7.1-13.70003ZM19.5 15.9c-2.2-1.5-6.5-4.4-6.4-7.80003.1-3.6 5.7-6.6 8.8-3.9C25.8 7.59997 27.6 15.3 29 20.8c-3.2-1.5-6.3-2.8-9.5-4.9Zm6 57.1H6.1V39.6h19.4V73Zm0-36.5H3v-11h22.5v11Zm10.2 0V73h-7.2V25.6h7.2v10.9ZM58 73H38.6V39.6H58V73Zm2.9-36.5H38.6v-11h22.3v11Z" fill="#81B3D2"/></g><defs><clipPath id="a"><path fill="#fff" d="M0 0h64v76H0z"/></clipPath></defs></svg>