<svg width="160" height="37" fill="none" xmlns="http://www.w3.org/2000/svg"><rect width="160" height="37" rx="4" fill="#F2F2F2"/><path d="M34.1959 12.912c.4054-.096.8427-.16 1.312-.192.4694-.032.9334-.048 1.392-.048.4907 0 .9867.048 1.488.144.512.096.976.272 1.392.528.416.256.752.608 1.008 1.056.2667.448.4 1.0187.4 1.712 0 .6827-.1226 1.2587-.368 1.728-.2453.4693-.5706.8533-.976 1.152-.4053.288-.8693.496-1.392.624-.5226.128-1.0613.192-1.616.192h-.656c-.128-.0107-.256-.0213-.384-.032-.128-.0107-.2186-.0213-.272-.032V24h-1.328V12.912Zm2.736.912c-.2773 0-.544.0053-.8.016-.256.0107-.4586.0373-.608.08v4.64c.0534.0213.1387.0373.256.048.1174 0 .24.0053.368.016h.624c.3627 0 .72-.032 1.072-.096.3627-.0747.688-.2027.976-.384.288-.1813.5174-.4373.688-.768.1814-.3307.272-.752.272-1.264 0-.4373-.0853-.8-.256-1.088-.16-.2987-.3786-.5333-.656-.704-.2666-.1813-.5706-.3093-.912-.384-.3413-.0747-.6826-.112-1.024-.112Zm6.2015-1.024h6.096v1.184h-4.768v3.664h4.368v1.184h-4.368v3.984h4.848V24h-6.176V12.8Zm15.4262 3.616.096-1.28h-.064l-.688 1.312L52.4956 24h-.784V12.8h1.328v7.68l-.112 1.264h.064l.704-1.312 5.408-7.632h.784V24h-1.328v-7.584Zm-4.08-6.336c.0426.3947.192.6987.448.912.256.2133.5973.32 1.024.32.4266 0 .7626-.1067 1.008-.32.256-.2133.4106-.512.464-.896l1.136.272c-.1174.576-.3894 1.0347-.816 1.376-.416.3307-1.0187.496-1.808.496-.7574 0-1.3814-.144-1.872-.432-.48-.2987-.7627-.768-.848-1.408l1.264-.32Zm15.3546 3.904h-3.488V24h-1.328V13.984h-3.488V12.8h8.304v1.184Zm8.491 2.432.096-1.28h-.064l-.688 1.312L72.2612 24h-.784V12.8h1.328v7.68l-.112 1.264h.064l.704-1.312 5.408-7.632h.784V24h-1.328v-7.584Zm10.7466 2.448h-5.376V24h-1.328V12.8h1.328v4.88h5.376V12.8h1.328V24h-1.328v-5.136Zm10.046-4.88h-4.672V24h-1.328V12.8h6v1.184Zm1.1742 2.832c0-.288.08-.512.24-.672.171-.1707.395-.256.672-.256.288 0 .517.0853.688.256.171.16.256.384.256.672 0 .2773-.085.5013-.256.672-.171.1707-.4.256-.688.256-.277 0-.501-.0853-.672-.256-.16-.1707-.24-.3947-.24-.672Zm0 6.448c0-.288.08-.512.24-.672.171-.1707.395-.256.672-.256.288 0 .517.0853.688.256.171.16.256.384.256.672 0 .2773-.085.5013-.256.672-.171.1707-.4.256-.688.256-.277 0-.501-.0853-.672-.256-.16-.1707-.24-.3947-.24-.672Zm7.142-7.072c0-.512.074-.9867.224-1.424.149-.4373.368-.816.656-1.136.288-.32.645-.5707 1.072-.752.437-.1813.944-.272 1.52-.272 1.088 0 1.936.352 2.544 1.056.608.704.912 1.696.912 2.976 0 1.2053-.139 2.2613-.416 3.168-.267.896-.64 1.6533-1.12 2.272-.48.6187-1.051 1.104-1.712 1.456-.651.3413-1.36.56-2.128.656l-.288-1.024c.618-.096 1.173-.2773 1.664-.544.501-.2667.928-.6027 1.28-1.008.362-.4053.656-.864.88-1.376.224-.5227.378-1.088.464-1.696-.288.3413-.608.5813-.96.72-.342.128-.795.192-1.36.192-.438 0-.854-.0693-1.248-.208-.384-.1493-.726-.3627-1.024-.64-.299-.2773-.534-.6187-.704-1.024-.171-.4053-.256-.8693-.256-1.392Zm1.328-.128c0 .7573.197 1.328.592 1.712.405.3733.933.56 1.584.56.522 0 .97-.0853 1.344-.256.373-.1707.64-.3947.8-.672.021-.1387.032-.2613.032-.368v-.336c0-.384-.048-.752-.144-1.104-.086-.3627-.219-.6827-.4-.96-.182-.288-.422-.512-.72-.672-.288-.16-.63-.24-1.024-.24-.651 0-1.158.208-1.52.624-.363.4053-.544.976-.544 1.712Zm7.342 7.248c0-.256.086-.464.256-.624.171-.16.39-.24.656-.24.331 0 .598.1173.8.352.214.2347.32.576.32 1.024 0 .384-.053.72-.16 1.008-.106.288-.245.5333-.416.736-.17.2133-.357.384-.56.512-.202.1387-.405.24-.608.304l-.4-.624c.384-.1493.667-.384.848-.704.192-.3093.288-.624.288-.944-.096.032-.186.048-.272.048-.213 0-.394-.0693-.544-.208-.138-.1493-.208-.3627-.208-.64Zm9.477-7.968c0 .5653-.106 1.1467-.32 1.744-.202.5867-.474 1.1787-.816 1.776-.33.5973-.704 1.184-1.12 1.76-.416.5653-.832 1.104-1.248 1.616l-.784.688v.064l1.024-.176h3.488V24h-6.368v-.464c.235-.2453.518-.5493.848-.912.331-.3627.672-.7627 1.024-1.2.363-.448.715-.9173 1.056-1.408.352-.5013.667-1.008.944-1.52.288-.512.518-1.0187.688-1.52.171-.5013.256-.976.256-1.424 0-.5227-.149-.9547-.448-1.296-.298-.352-.752-.528-1.36-.528-.405 0-.8.0853-1.184.256-.384.16-.714.3467-.992.56l-.528-.912c.374-.32.816-.5707 1.328-.752.512-.1813 1.062-.272 1.648-.272.459 0 .864.0693 1.216.208.352.128.651.3147.896.56.246.2453.432.5387.56.88.128.3307.192.6933.192 1.088Z" fill="#333"/></svg>